<svg xmlns="http://www.w3.org/2000/svg" width="178" height="178" viewBox="0 0 178 178" fill="none">
  <g clip-path="url(#clip0_122_7262)">
    <path d="M177.013 94.9915L177.021 95.1395L177.043 95.2726L177.013 94.9915ZM169.407 74.4898L169.518 74.6821L169.533 74.7043L169.407 74.4898Z" fill="black"/>
    <path d="M116.544 77.0794H116.359C110.181 77.0794 104.528 79.2842 100.171 82.9243C95.7906 86.6236 92.8903 91.8471 92.55 97.766H92.5574C92.2244 103.848 94.666 109.486 98.9572 113.681C103.47 117.987 109.574 120.628 116.3 120.628H116.795C123.521 120.628 129.625 117.987 134.116 113.688C138.407 109.493 140.849 103.848 140.516 97.7586C140.183 91.8471 137.29 86.6236 132.91 82.9243C128.311 79.1123 122.517 77.0428 116.544 77.0794Z" fill="#1976D2"/>
    <path d="M163.422 140.316C168.697 134.544 172.676 127.71 175.09 120.273L175.201 119.881C176.787 114.888 177.585 109.678 177.568 104.44C177.554 94.5756 174.765 84.9146 169.519 76.5614C165.912 70.8084 161.324 65.7326 155.964 61.5643L155.831 61.4681H155.846L100.222 18.763C96.5823 15.9663 90.4636 15.9811 86.461 18.7778C82.4139 21.6041 81.9552 26.2874 85.5509 29.2469L85.5435 29.2543L108.672 48.0691L38.0662 48.1431C32.2361 48.1505 26.6353 51.9756 25.5255 56.8143C24.3861 61.7344 28.337 65.8185 34.4039 65.8407V65.8555L70.1395 65.7815L6.11133 114.923C0.0962066 119.525 -1.84225 127.19 1.94588 132.037C5.79319 136.971 13.9687 136.979 20.0504 132.066L54.8538 103.589C54.8538 103.589 54.3433 107.436 54.3877 109.737L54.3729 109.73C54.4173 112.053 55.1572 116.551 56.267 120.073C58.6717 127.665 62.7069 134.639 68.09 140.508C73.745 146.717 80.6214 151.692 88.2884 155.12L88.6732 155.276C97.0774 159.013 106.177 160.929 115.375 160.899H115.885C125.504 160.899 134.634 158.835 142.883 155.15C150.659 151.685 157.636 146.653 163.378 140.367L163.422 140.316ZM151.458 110.64C149.792 115.123 147.192 119.201 143.83 122.603L143.816 122.611C136.639 129.921 126.606 134.064 115.738 134.079C104.861 134.108 94.8215 129.995 87.6447 122.699C84.3136 119.354 81.7268 115.343 80.0537 110.928L79.9797 110.699C78.7331 107.265 78.1019 103.638 78.1152 99.9855C78.1152 94.4217 79.558 89.1983 82.0735 84.6481C84.2287 80.7838 87.0985 77.3642 90.5302 74.5711L90.5968 74.5193C97.5664 68.8372 106.437 65.7667 115.723 65.7519C125.008 65.7371 133.886 68.7854 140.863 74.4454C144.415 77.3382 147.3 80.7638 149.387 84.5593C151.451 88.1995 152.827 92.4907 153.241 97.0557L153.249 97.174C153.655 101.74 153.044 106.339 151.458 110.64Z" fill="#FF9800"/>
    <path d="M143.234 153.138C143.122 153.19 143.003 153.22 142.884 153.272C142.86 153.281 142.837 153.294 142.817 153.309L143.234 153.138Z" fill="black"/>
  </g>
  <defs>
    <clipPath id="clip0_122_7262">
      <rect width="177.568" height="177.568" fill="white"/>
    </clipPath>
  </defs>
</svg>