<svg xmlns="http://www.w3.org/2000/svg" width="150" height="150" viewBox="0 0 150 150" fill="none">
  <path d="M50 150C63.8 150 75 138.8 75 125V100H50C36.2 100 25 111.2 25 125C25 138.8 36.2 150 50 150Z" fill="#0ACF83"/>
  <path d="M25 75C25 61.2 36.2 50 50 50H75V100H50C36.2 100 25 88.8 25 75Z" fill="#A259FF"/>
  <path d="M25 25C25 11.2 36.2 0 50 0H75V50H50C36.2 50 25 38.8 25 25Z" fill="#F24E1E"/>
  <path d="M75 0H100C113.8 0 125 11.2 125 25C125 38.8 113.8 50 100 50H75V0Z" fill="#FF7262"/>
  <path d="M125 75C125 88.8 113.8 100 100 100C86.2 100 75 88.8 75 75C75 61.2 86.2 50 100 50C113.8 50 125 61.2 125 75Z" fill="#1ABCFE"/>
</svg>