<svg xmlns="http://www.w3.org/2000/svg" width="25" height="26" viewBox="0 0 25 26" fill="none">
  <path d="M1.43431 25.5502C0.642159 25.5502 0 24.908 0 24.1159V2.88812C0 2.09598 0.642162 1.45381 1.43431 1.45381H3.04073C3.83288 1.45381 4.47504 2.09597 4.47504 2.88812V20.3293C4.47504 21.1215 5.1172 21.7636 5.90935 21.7636H15.6397C16.4318 21.7636 17.074 22.4058 17.074 23.1979V24.1159C17.074 24.908 16.4318 25.5502 15.6397 25.5502H1.43431Z" fill="#313131"/>
  <path d="M22.1773 25.5272C21.397 25.5272 20.7315 25.2633 20.1807 24.7355C19.6299 24.1847 19.3546 23.4963 19.3546 22.6701C19.3546 21.798 19.6299 21.1096 20.1807 20.6047C20.7315 20.0769 21.397 19.813 22.1773 19.813C22.9575 19.813 23.6231 20.0769 24.1738 20.6047C24.7246 21.1096 25 21.798 25 22.6701C25 23.4963 24.7246 24.1847 24.1738 24.7355C23.6231 25.2633 22.9575 25.5272 22.1773 25.5272Z" fill="#313131"/>
  <path d="M16.2421 19.2794C14.1997 19.2794 12.4097 18.8778 10.8721 18.0746C9.35744 17.2484 8.17557 16.1239 7.32646 14.7011C6.5003 13.2783 6.08722 11.6604 6.08722 9.84739C6.08722 8.01147 6.48883 6.39357 7.29204 4.99369C8.1182 3.57085 9.2427 2.45783 10.6655 1.65462C12.1113 0.851406 13.7522 0.449799 15.5881 0.449799C17.3781 0.449799 18.973 0.839931 20.3729 1.62019C21.7728 2.40046 22.8744 3.50201 23.6776 4.92484C24.4808 6.34768 24.8824 8.02295 24.8824 9.95066C24.8824 10.1342 24.8709 10.3408 24.848 10.5703V10.5703C24.848 10.9433 24.5313 11.2243 24.1583 11.2243H10.9237C10.1347 11.2243 9.49514 10.5847 9.49514 9.79575V9.79575C9.49514 9.00677 10.1347 8.36718 10.9237 8.36718H21.2008C21.5486 8.36718 21.6644 8.83263 21.3572 8.99563V8.99563C21.1322 9.11505 20.8596 8.948 20.8431 8.69374C20.7897 7.86965 20.5756 7.1297 20.2008 6.47389C19.7418 5.67068 19.1107 5.03959 18.3075 4.58061C17.5273 4.12163 16.6208 3.89214 15.5881 3.89214C14.5324 3.89214 13.603 4.12163 12.7998 4.58061C12.0195 5.03959 11.3999 5.68216 10.9409 6.50832C10.5049 7.31153 10.2869 8.26391 10.2869 9.36546V10.0539C10.2869 11.1555 10.5393 12.1308 11.0442 12.9799C11.5491 13.829 12.2605 14.4831 13.1784 14.942C14.0964 15.401 15.152 15.6305 16.3454 15.6305C17.3781 15.6305 18.3075 15.4699 19.1337 15.1486C19.3583 15.0612 19.5762 14.9603 19.7872 14.8458C20.7158 14.342 21.9403 14.3275 22.6337 15.1245V15.1245C23.2135 15.7908 23.2289 16.8009 22.5344 17.3466C21.9372 17.8158 21.2626 18.2076 20.5106 18.5221C19.2714 19.027 17.8485 19.2794 16.2421 19.2794Z" fill="#313131"/>
  <rect x="10.0402" y="3.46185" width="11.5462" height="6.02409" fill="#313131"/>
</svg>