<svg xmlns="http://www.w3.org/2000/svg" width="178" height="178" viewBox="0 0 178 178" fill="none">
  <path d="M173.265 81.2008L96.8034 4.74303C92.403 0.339848 85.2613 0.339848 80.854 4.74303L64.9795 20.6217L85.1198 40.762C89.8019 39.1819 95.1678 40.2418 98.8982 43.9721C102.648 47.7261 103.701 53.1378 102.079 57.8351L121.49 77.2485C126.186 75.6295 131.606 76.6755 135.354 80.4322C140.598 85.6719 140.598 94.1662 135.354 99.4086C130.11 104.653 121.619 104.653 116.372 99.4086C112.43 95.4633 111.454 89.6714 113.452 84.8132L95.3509 66.7108L95.3481 114.351C96.6272 114.982 97.8327 115.826 98.8982 116.887C104.141 122.127 104.141 130.618 98.8982 135.869C93.6557 141.108 85.1587 141.108 79.9218 135.869C74.6807 130.619 74.2506 122.128 79.4903 116.887C80.786 115.592 82.0637 114.614 83.451 113.96V65.8784C82.0637 65.2236 80.7874 64.2526 79.4889 62.9499C75.52 58.9823 74.7778 53.1558 76.8143 48.2782L57.0693 28.4223L4.69449 80.847C0.289925 85.2544 0.31767 92.396 4.72224 96.8006L81.1966 173.258C85.5984 177.662 92.7456 177.662 97.1544 173.258L173.26 97.1557C177.664 92.7498 177.668 85.604 173.265 81.2008Z" fill="#F34F29"/>
</svg>