<svg xmlns="http://www.w3.org/2000/svg" width="150" height="150" viewBox="0 0 150 150" fill="none">
  <g clip-path="url(#clip0_144_9184)">
    <path d="M127.5 0H22.5003C10.0738 0 0.000244141 10.0736 0.000244141 22.5V127.5C0.000244141 139.926 10.0738 150 22.5003 150H127.5C139.927 150 150 139.926 150 127.5V22.5C150 10.0736 139.927 0 127.5 0Z" fill="#F7DF1E"/>
    <path d="M94.922 108.398C97.8517 113.379 101.953 116.894 108.692 116.894C114.551 116.894 118.36 113.965 118.36 109.863C118.36 105.176 114.551 103.418 108.106 100.488L104.59 99.0234C94.3361 94.6289 87.5978 89.3554 87.5978 77.9296C87.5978 67.3828 95.5079 59.1797 108.106 59.1797C117.188 59.1797 123.633 62.4023 128.027 70.6054L117.188 77.6367C114.844 73.2421 112.207 71.4843 108.106 71.4843C104.004 71.4843 101.367 74.1211 101.367 77.6367C101.367 81.7382 104.004 83.496 110.156 86.1328L113.672 87.5976C125.684 92.871 132.422 97.8515 132.422 109.863C132.422 122.461 122.461 129.492 108.985 129.492C95.8009 129.492 87.3048 123.34 83.2033 115.137L94.922 108.398ZM45.1173 109.57C47.4611 113.379 49.2189 116.894 54.1993 116.894C58.8868 116.894 61.8165 115.137 61.8165 108.105V59.4726H75.879V107.519C75.879 122.168 67.3829 128.613 54.7853 128.613C43.3595 128.613 36.9142 122.754 33.6915 115.723L45.1173 109.57Z" fill="black"/>
  </g>
  <defs>
    <clipPath id="clip0_144_9184">
      <rect width="150" height="150" fill="white" transform="translate(0.000244141)"/>
    </clipPath>
  </defs>
</svg>